<svg width="1120" height="800" viewBox="0 0 1120 800" fill="none" xmlns="http://www.w3.org/2000/svg">
<g clip-path="url(#clip0_1547_401715)">
<path fill-rule="evenodd" clip-rule="evenodd" d="M303.001 447L0 447L2.36496e-05 800H560L1120 800V376L817.434 376C817.334 387.921 813.679 400.047 806.894 412.04C810.076 416.821 812.583 421.858 814.36 427.14C820.387 445.056 817.376 463.904 806.893 482.434C810.076 487.216 812.584 492.255 814.361 497.537C836.13 562.251 739.994 639.123 599.635 669.236C459.276 699.349 327.845 671.299 306.076 606.585C300.05 588.669 303.06 569.821 313.544 551.291C310.36 546.509 307.852 541.47 306.075 536.188C300.048 518.271 303.059 499.423 313.542 480.894C310.36 476.112 307.853 471.075 306.076 465.794C304 459.623 302.997 453.341 303.001 447Z" fill="#C7C7C7"/>
</g>
<defs>
<clipPath id="clip0_1547_401715">
<rect width="1120" height="800" fill="white"/>
</clipPath>
</defs>
</svg>
