<svg width="800" height="1120" viewBox="0 0 800 1120" fill="none" xmlns="http://www.w3.org/2000/svg">
<g clip-path="url(#clip0_1547_401739)">
<path fill-rule="evenodd" clip-rule="evenodd" d="M118.003 503H2.5044e-05L0 1120H400H800V410H680.999C681.112 443.578 667.349 477.952 642.791 509.78C659.507 525.964 671.39 545.226 677.154 567.168C688.329 609.714 674.637 655.268 642.792 696.54C659.507 712.724 671.39 731.985 677.154 753.927C702.619 850.88 598.954 963.456 445.61 1005.37C292.266 1047.29 147.312 1002.67 121.846 905.717C110.671 863.171 124.363 817.616 156.208 776.345C139.493 760.161 127.61 740.899 121.846 718.958C110.671 676.411 124.363 630.856 156.209 589.585C139.493 573.4 127.61 554.139 121.846 532.196C119.323 522.59 118.068 512.83 118.003 503Z" fill="#C7C7C7"/>
</g>
<defs>
<clipPath id="clip0_1547_401739">
<rect width="800" height="1120" fill="white"/>
</clipPath>
</defs>
</svg>
