<svg width="800" height="1120" viewBox="0 0 800 1120" fill="none" xmlns="http://www.w3.org/2000/svg">
<g clip-path="url(#clip0_1547_401732)">
<path fill-rule="evenodd" clip-rule="evenodd" d="M800 0H4.54608e-05L0 1120H800L800 0ZM642.791 509.78C674.637 468.508 688.329 422.953 677.154 380.406C651.688 283.453 506.734 238.836 353.39 280.752C200.046 322.667 96.3806 435.243 121.846 532.196C127.61 554.139 139.493 573.4 156.209 589.585C124.363 630.856 110.671 676.411 121.846 718.958C127.61 740.899 139.493 760.161 156.208 776.345C124.363 817.616 110.671 863.171 121.846 905.717C147.312 1002.67 292.266 1047.29 445.61 1005.37C598.954 963.456 702.62 850.88 677.154 753.927C671.39 731.985 659.507 712.724 642.792 696.54C674.637 655.268 688.329 609.714 677.154 567.168C671.39 545.226 659.507 525.964 642.791 509.78Z" fill="#C7C7C7"/>
</g>
<defs>
<clipPath id="clip0_1547_401732">
<rect width="800" height="1120" fill="white"/>
</clipPath>
</defs>
</svg>
