<svg width="1120" height="800" viewBox="0 0 1120 800" fill="none" xmlns="http://www.w3.org/2000/svg">
<g clip-path="url(#clip0_1547_401708)">
<path fill-rule="evenodd" clip-rule="evenodd" d="M0 3.12458e-05L5.47905e-05 800L1120 800V0L0 3.12458e-05ZM806.894 412.04C817.378 393.51 820.388 374.662 814.361 356.746C792.592 292.032 661.162 263.983 520.803 294.095C380.444 324.208 284.307 401.08 306.076 465.794C307.853 471.075 310.36 476.112 313.542 480.894C303.059 499.423 300.048 518.271 306.075 536.188C307.852 541.47 310.36 546.509 313.544 551.291C303.06 569.821 300.05 588.669 306.076 606.585C327.845 671.299 459.276 699.349 599.635 669.236C739.994 639.123 836.13 562.251 814.361 497.537C812.584 492.255 810.076 487.216 806.893 482.434C817.376 463.904 820.387 445.056 814.36 427.14C812.583 421.858 810.076 416.821 806.894 412.04Z" fill="#C7C7C7"/>
</g>
<defs>
<clipPath id="clip0_1547_401708">
<rect width="1120" height="800" fill="white"/>
</clipPath>
</defs>
</svg>
