<svg width="104" height="104" viewBox="0 0 104 104" fill="none" xmlns="http://www.w3.org/2000/svg">
<g clip-path="url(#clip0_1307_400440)">
<path fill-rule="evenodd" clip-rule="evenodd" d="M104 0H0V104H104V0ZM83.1403 40.9107C85.5583 37.8746 86.4789 34.6965 85.4765 31.7166C82.6466 23.3039 65.5606 19.6574 47.3139 23.572C29.0672 27.4867 16.5695 37.4801 19.3995 45.8929C19.8438 47.2136 20.6394 48.4168 21.7357 49.4918C19.3177 52.5279 18.3971 55.706 19.3995 58.6858C19.8435 60.0059 20.6386 61.2085 21.734 62.2831C19.3173 65.3185 18.3974 68.4958 19.3995 71.4749C22.2295 79.8877 39.3155 83.5342 57.5621 79.6195C75.8088 75.7048 88.3065 65.7115 85.4765 57.2987C85.0325 55.9787 84.2375 54.776 83.1421 53.7015C85.5587 50.6661 86.4787 47.4887 85.4765 44.5096C85.0322 43.1889 84.2366 41.9856 83.1403 40.9107Z" fill="black" fill-opacity="0.16"/>
</g>
<defs>
<clipPath id="clip0_1307_400440">
<rect width="104" height="104" fill="white"/>
</clipPath>
</defs>
</svg>
