<svg width="104" height="104" viewBox="0 0 104 104" fill="none" xmlns="http://www.w3.org/2000/svg">
<g clip-path="url(#clip0_1307_400523)">
<path fill-rule="evenodd" clip-rule="evenodd" d="M104 0H0V104H104V0ZM75.5027 39.7299C78.6272 35.8979 79.9704 31.6683 78.8739 27.718C76.3747 18.7152 62.1494 14.5722 47.1006 18.4643C32.0519 22.3565 21.8785 32.8099 24.3776 41.8128C24.9431 43.8498 26.1089 45.638 27.7488 47.1407C24.6243 50.9727 23.2811 55.2023 24.3776 59.1526C24.9433 61.1904 26.1098 62.9792 27.7506 64.4822C24.6249 68.3148 23.2808 72.5453 24.3776 76.4964C26.8768 85.4992 41.1021 89.6422 56.1509 85.75C71.1996 81.8579 81.373 71.4044 78.8739 62.4016C78.3082 60.3638 77.1417 58.575 75.5009 57.072C78.6266 53.2394 79.9707 49.0089 78.8739 45.0578C78.3084 43.0208 77.1426 41.2326 75.5027 39.7299Z" fill="white" fill-opacity="0.15"/>
</g>
<defs>
<clipPath id="clip0_1307_400523">
<rect width="104" height="104" fill="white"/>
</clipPath>
</defs>
</svg>
