<svg width="104" height="104" viewBox="0 0 104 104" fill="none" xmlns="http://www.w3.org/2000/svg">
<g clip-path="url(#clip0_34983_661824)">
<path fill-rule="evenodd" clip-rule="evenodd" d="M104 0H0V104H104V0ZM30.2318 45.7022L23.0318 41.5622L33.2018 16.4522L42.8318 19.3322L46.5218 12.4922L63.8018 17.7122L62.5818 23.2028C65.0618 21.1322 70.7478 20.0349 74.5118 22.5722C79.3655 25.8441 77.9318 33.0122 76.2908 40.0322L82.7918 43.5422L75.0518 64.8722L81.3518 68.3822C80.5367 70.0239 79.7889 71.5388 79.0975 72.9393C74.3692 82.5178 72.2839 86.7421 69.3946 89.5496C66.0828 92.7675 58.3118 93.0422 55.2518 87.2822L49.8503 92.8622L40.724 86.4558C39.0208 87.8459 33.3435 90.0728 29.5586 86.5209C25.7737 82.969 27.2876 77.4349 28.707 74.1223L21.5918 68.7422L30.2318 45.7022Z" fill="black" fill-opacity="0.16" style="fill:black;fill-opacity:0.16;"/>
</g>
<defs>
<clipPath id="clip0_34983_661824">
<rect width="104" height="104" fill="white" style="fill:white;fill-opacity:1;"/>
</clipPath>
</defs>
</svg>
