<svg width="360" height="800" viewBox="0 0 360 800" fill="none" xmlns="http://www.w3.org/2000/svg">
<path fill-rule="evenodd" clip-rule="evenodd" d="M360 0H0V800H360V0ZM58 421L18 398L74.5 258.5L128 274.5L148.5 236.5L244.5 265.5L237.722 296.004C251.5 284.5 283.089 278.404 304 292.5C330.965 310.677 323 350.5 313.883 389.5L350 409L307 527.5L342 547C337.472 556.121 333.317 564.537 329.476 572.317C303.208 625.531 291.623 648.999 275.571 664.597C257.172 682.474 214 684 197 652L166.992 683L116.29 647.409C106.828 655.132 75.2871 667.504 54.2598 647.771C33.2325 628.038 41.6435 597.293 49.5288 578.889L10 549L58 421Z" fill="#D9D9D9"/>
</svg>
