<svg width="104" height="104" viewBox="0 0 104 104" fill="none" xmlns="http://www.w3.org/2000/svg">
<g clip-path="url(#clip0_1307_400425)">
<path fill-rule="evenodd" clip-rule="evenodd" d="M104 0H0V104H104V0ZM19.8627 47.7846L14 44.4243L22.6299 23.0477L34.6811 26.7987L37.6895 20L53.6373 25.861L55.9824 20.8596L69.141 26.3369C72.5283 23.9073 76.7625 22.7739 80.8013 25.3921C84.8401 28.0103 84.9052 33.0504 83.9281 38.2862L89.4 41.5683L83.3553 60.6756L88.3265 63.492C87.5985 65.1647 86.948 66.6751 86.3587 68.0435C82.9238 76.0192 81.5651 79.174 79.025 81.5616C76.049 84.3588 69.3688 84.6088 66.8498 79.9148L63.4911 85L49.152 79.9148L45.7287 83.9047L34.2962 78.8978C32.8639 80.3985 27.7726 83.4353 23.445 80.9319C19.1174 78.4284 19.182 72.5609 20.5377 68.7102L14.4045 65.0728L19.8627 47.7846Z" fill="black" fill-opacity="0.16"/>
</g>
<defs>
<clipPath id="clip0_1307_400425">
<rect width="104" height="104" fill="white"/>
</clipPath>
</defs>
</svg>
