<svg width="104" height="104" viewBox="0 0 104 104" fill="none" xmlns="http://www.w3.org/2000/svg">
<g clip-path="url(#clip0_1307_400531)">
<path fill-rule="evenodd" clip-rule="evenodd" d="M104 0H0V104H104V0ZM29.2954 44.0888L22.6663 41.8877L31.1883 18.4695L40.9967 20.5426L43.6054 16L61.6088 19.6968L61.1442 22.5718C64.2108 20.2808 69.8772 19.2571 74.061 21.7632C78.1127 24.1901 79.1719 30.2532 76.99 37.502L83.3071 40.8545L75.8078 62.5908L81.8668 65.8545C80.154 69.1897 78.8066 71.9272 77.6851 74.2058C74.7826 80.103 73.3926 82.9271 71.0952 85.0853C67.9101 88.0774 60.4364 88.3328 57.4934 82.977L51.3804 88.3357L40.8548 82.2896C38.4326 84.5888 33.2359 85.9131 29.2954 82.977C25.355 80.0409 25.6169 73.5185 27.2464 69.6439L21 66.5042L29.2954 44.0888Z" fill="white" fill-opacity="0.15"/>
</g>
<defs>
<clipPath id="clip0_1307_400531">
<rect width="104" height="104" fill="white"/>
</clipPath>
</defs>
</svg>
