<svg width="800" height="1120" viewBox="0 0 800 1120" fill="none" xmlns="http://www.w3.org/2000/svg">
<g clip-path="url(#clip0_1547_401615)">
<path fill-rule="evenodd" clip-rule="evenodd" d="M180.012 558L101 791.437L160.55 824.164C145.015 864.551 135 918.813 171.5 951.5C205 981.5 267.193 979.944 290.285 955.978L390.629 1019L425 971C483.711 1002.5 550.135 995.689 580.5 964.5C607.779 936.48 622.363 906.344 665.483 817.242C670.36 807.165 675.602 796.333 681.268 784.664L623.505 750.645L698.5 515L634.776 489.128C634.788 489.086 634.8 489.043 634.812 489L800 489V1120H400H0L2.28116e-05 558H180.012Z" fill="#C7C7C7"/>
</g>
<defs>
<clipPath id="clip0_1547_401615">
<rect width="800" height="1120" fill="white"/>
</clipPath>
</defs>
</svg>
