<svg width="1120" height="800" viewBox="0 0 1120 800" fill="none" xmlns="http://www.w3.org/2000/svg">
<g clip-path="url(#clip0_1547_401601)">
<path fill-rule="evenodd" clip-rule="evenodd" d="M0 3.12458e-05L5.47905e-05 800L1120 800V0L0 3.12458e-05ZM338 465L303 446.948L361.83 301.224L443.983 326.795L464.491 280.448L573.206 320.402L589.193 286.308L678.895 323.647C701.986 307.084 730.851 299.358 758.383 317.206C785.915 335.054 786.359 369.412 779.698 405.105L817 427.479L775.793 517.733L809.682 536.932C804.719 548.335 800.285 558.631 796.268 567.96C772.852 622.33 763.59 643.836 746.274 660.112C725.987 679.181 680.448 680.885 663.276 648.886L640.38 683.552L544.5 636.5L519.294 676.085L441.359 641.953C431.595 652.184 391.331 670.066 361.83 653C332.329 635.934 338.326 598.755 347.568 572.504L305.758 547.708L338 465Z" fill="#C7C7C7"/>
</g>
<defs>
<clipPath id="clip0_1547_401601">
<rect width="1120" height="800" fill="white"/>
</clipPath>
</defs>
</svg>
