<svg width="1120" height="800" viewBox="0 0 1120 800" fill="none" xmlns="http://www.w3.org/2000/svg">
<g clip-path="url(#clip0_1547_401605)">
<path fill-rule="evenodd" clip-rule="evenodd" d="M338 465L305.758 547.708L347.568 572.504C338.326 598.755 332.329 635.934 361.83 653C391.331 670.066 431.595 652.183 441.359 641.953L519.294 676.085L544.5 636.5L640.38 683.552L663.276 648.886C680.448 680.885 725.986 679.181 746.274 660.112C763.59 643.836 772.852 622.33 796.268 567.959C800.285 558.631 804.719 548.335 809.682 536.932L775.793 517.733L817 427.479L779.698 405.105C779.705 405.07 779.711 405.035 779.718 405L1120 405V800L560 800H2.29435e-05L0 465L338 465Z" fill="#C7C7C7"/>
</g>
<defs>
<clipPath id="clip0_1547_401605">
<rect width="1120" height="800" fill="white"/>
</clipPath>
</defs>
</svg>
