<svg width="800" height="1120" viewBox="0 0 800 1120" fill="none" xmlns="http://www.w3.org/2000/svg">
<g clip-path="url(#clip0_1547_401611)">
<path fill-rule="evenodd" clip-rule="evenodd" d="M800 0H4.54608e-05L0 1120H800L800 0ZM180.084 557.787L116.885 534.843L198.129 290.741L291.637 312.35L307.5 265L488.141 303.534L483.711 333.502C508.5 312.35 568.5 303.534 606.852 325.073C655.471 352.378 655.577 413.57 634.776 489.128L698.5 515L623.505 750.645L681.268 784.664C675.602 796.333 670.36 807.165 665.483 817.242C622.364 906.344 607.78 936.48 580.5 964.5C550.135 995.689 483.711 1002.5 425 971L390.63 1019L290.285 955.978C267.193 979.944 205 981.5 171.5 951.5C135 918.813 145.015 864.551 160.55 824.164L101 791.437L180.084 557.787Z" fill="#C7C7C7"/>
</g>
<defs>
<clipPath id="clip0_1547_401611">
<rect width="800" height="1120" fill="white"/>
</clipPath>
</defs>
</svg>
