<svg width="698" height="751" viewBox="0 0 698 751" fill="none" xmlns="http://www.w3.org/2000/svg">
<g clip-path="url(#clip0_1547_401637)">
<path fill-rule="evenodd" clip-rule="evenodd" d="M698 0H0V751H698V0ZM108.616 261.104C106 266.238 106 272.959 106 286.4V612.6C106 626.041 106 632.762 108.616 637.896C110.917 642.412 114.588 646.083 119.104 648.384C124.238 651 130.959 651 144.4 651H552.6C566.041 651 572.762 651 577.896 648.384C582.412 646.083 586.083 642.412 588.384 637.896C591 632.762 591 626.041 591 612.6V286.4C591 272.959 591 266.238 588.384 261.104C586.083 256.588 582.412 252.917 577.896 250.616C572.762 248 566.041 248 552.6 248H144.4C130.959 248 124.238 248 119.104 250.616C114.588 252.917 110.917 256.588 108.616 261.104Z" fill="#C7C7C7"/>
</g>
<defs>
<clipPath id="clip0_1547_401637">
<rect width="698" height="751" fill="white"/>
</clipPath>
</defs>
</svg>
