<svg width="698" height="751" viewBox="0 0 698 751" fill="none" xmlns="http://www.w3.org/2000/svg">
<path fill-rule="evenodd" clip-rule="evenodd" d="M106.132 274C106 277.389 106 281.436 106 286.4V612.6C106 626.041 106 632.762 108.616 637.896C110.917 642.412 114.588 646.083 119.104 648.384C124.238 651 130.959 651 144.4 651H552.6C566.041 651 572.762 651 577.896 648.384C582.412 646.083 586.083 642.412 588.384 637.896C591 632.762 591 626.041 591 612.6V286.4C591 281.436 591 277.389 590.868 274H698V751H0V274H106.132Z" fill="#C7C7C7"/>
</svg>
