<svg width="104" height="104" viewBox="0 0 104 104" fill="none" xmlns="http://www.w3.org/2000/svg">
<g clip-path="url(#clip0_1307_400392)">
<path fill-rule="evenodd" clip-rule="evenodd" d="M104 0H0V104H104V0ZM16.436 24.184C16 25.0397 16 26.1598 16 28.4V75.6458C16 77.8861 16 79.0062 16.436 79.8618C16.8195 80.6145 17.4314 81.2264 18.184 81.6099C19.0397 82.0458 20.1598 82.0458 22.4 82.0458H81.8636C84.1038 82.0458 85.2239 82.0458 86.0796 81.6099C86.8322 81.2264 87.4441 80.6145 87.8276 79.8618C88.2636 79.0062 88.2636 77.8861 88.2636 75.6459V28.4C88.2636 26.1598 88.2636 25.0397 87.8276 24.184C87.4441 23.4314 86.8322 22.8195 86.0796 22.436C85.2239 22 84.1038 22 81.8636 22H22.4C20.1598 22 19.0397 22 18.184 22.436C17.4314 22.8195 16.8195 23.4314 16.436 24.184Z" fill="white" fill-opacity="0.15"/>
</g>
<defs>
<clipPath id="clip0_1307_400392">
<rect width="104" height="104" fill="white"/>
</clipPath>
</defs>
</svg>
