<svg width="698" height="751" viewBox="0 0 698 751" fill="none" xmlns="http://www.w3.org/2000/svg">
<g clip-path="url(#clip0_1547_401590)">
<path fill-rule="evenodd" clip-rule="evenodd" d="M698 0H0V751H698V0ZM132.657 415.138L89.124 394.339L158.207 243.072L238.231 273.441L260.569 231.359L366.518 267.63L383.931 236.673L474.97 267.63C491.776 254.786 520.295 246.048 550.152 262.182C580.009 278.316 580.625 309.584 573.369 341.991L614 362.307L567.147 488.538L603.358 510.317C597.312 521.898 591.736 532.725 586.543 542.81C560.033 594.289 543.478 626.437 525 640.915C502.902 658.229 455.618 657.027 432.192 626.471L409.656 662.198L330.848 628.586L306.403 659.142L230.537 626.471C219.902 635.76 182.652 654.824 149.964 639.061C117.276 623.298 118.31 587.248 128.377 563.413L82.8359 540.899L132.657 415.138Z" fill="#C7C7C7"/>
</g>
<defs>
<clipPath id="clip0_1547_401590">
<rect width="698" height="751" fill="white"/>
</clipPath>
</defs>
</svg>
