<svg width="104" height="104" viewBox="0 0 104 104" fill="none" xmlns="http://www.w3.org/2000/svg">
<g clip-path="url(#clip0_1307_400387)">
<path fill-rule="evenodd" clip-rule="evenodd" d="M104 0H0V104H104V0ZM19.4231 47.3825L12.9369 44.2835L23.2301 21.7452L35.1534 26.27L38.4818 20L54.2678 25.4042L56.8623 20.7917L70.4269 25.4042C72.9309 23.4904 77.1801 22.1885 81.6287 24.5924C86.0773 26.9964 86.1691 31.6552 85.088 36.4839L91.1419 39.5108L84.161 58.3189L89.5563 61.5639C88.6554 63.2895 87.8247 64.9026 87.0509 66.4052C83.101 74.0755 80.6343 78.8655 77.8811 81.0226C74.5886 83.6023 67.5435 83.4232 64.053 78.8705L60.6952 84.1937L48.9531 79.1857L45.3109 83.7384L34.0071 78.8705C32.4224 80.2545 26.8723 83.095 22.0019 80.7464C17.1315 78.3977 17.2856 73.0263 18.7855 69.475L12 66.1205L19.4231 47.3825Z" fill="black" fill-opacity="0.16"/>
</g>
<defs>
<clipPath id="clip0_1307_400387">
<rect width="104" height="104" fill="white"/>
</clipPath>
</defs>
</svg>
