<svg width="698" height="751" viewBox="0 0 698 751" fill="none" xmlns="http://www.w3.org/2000/svg">
<path fill-rule="evenodd" clip-rule="evenodd" d="M90.5072 395L132.657 415.138L82.8359 540.899L128.377 563.413C118.31 587.248 117.276 623.298 149.964 639.061C182.652 654.824 219.902 635.76 230.537 626.471L306.403 659.142L330.848 628.586L409.656 662.198L432.192 626.471C455.618 657.027 502.902 658.229 525 640.915C543.478 626.437 560.033 594.289 586.543 542.81C591.736 532.725 597.312 521.898 603.358 510.317L567.147 488.538L614 362.307L573.386 342H698V751H349H0V395H90.5072Z" fill="#C7C7C7"/>
</svg>
