<svg width="104" height="104" viewBox="0 0 104 104" fill="none" xmlns="http://www.w3.org/2000/svg">
<g clip-path="url(#clip0_1307_400420)">
<path fill-rule="evenodd" clip-rule="evenodd" d="M104 0H0V104H104V0ZM19.0258 24.6098C18.5898 25.4655 18.5898 26.5856 18.5898 28.8258V75.1758C18.5898 77.416 18.5898 78.5361 19.0258 79.3917C19.4093 80.1444 20.0212 80.7563 20.7739 81.1398C21.6295 81.5758 22.7496 81.5758 24.9898 81.5758H79.0098C81.2501 81.5758 82.3702 81.5758 83.2258 81.1398C83.9785 80.7563 84.5904 80.1444 84.9739 79.3917C85.4098 78.5361 85.4098 77.416 85.4098 75.1758V28.8258C85.4098 26.5856 85.4098 25.4655 84.9739 24.6098C84.5904 23.8572 83.9785 23.2452 83.2258 22.8618C82.3702 22.4258 81.2501 22.4258 79.0098 22.4258H24.9898C22.7496 22.4258 21.6295 22.4258 20.7739 22.8618C20.0212 23.2452 19.4093 23.8572 19.0258 24.6098Z" fill="black" fill-opacity="0.16"/>
</g>
<defs>
<clipPath id="clip0_1307_400420">
<rect width="104" height="104" fill="white"/>
</clipPath>
</defs>
</svg>
