<svg width="360" height="800" viewBox="0 0 360 800" fill="none" xmlns="http://www.w3.org/2000/svg">
<path fill-rule="evenodd" clip-rule="evenodd" d="M360 0H0V800H360V0ZM24.6629 388.264C24 391.025 24 393.96 24 399.829V638.4C24 647.361 24 651.841 25.7439 655.264C27.2779 658.274 29.7256 660.722 32.7362 662.256C36.1587 664 40.6392 664 49.6 664H184.091C189.962 664 192.898 664 195.661 663.337C198.11 662.749 200.451 661.779 202.599 660.462C205.021 658.977 207.097 656.901 211.248 652.749L324.756 539.211C328.906 535.06 330.981 532.985 332.465 530.563C333.78 528.416 334.749 526.075 335.337 523.627C336 520.865 336 517.93 336 512.061V273.49C336 264.529 336 260.049 334.256 256.626C332.722 253.616 330.274 251.168 327.264 249.634C323.841 247.89 319.361 247.89 310.4 247.89H175.909C170.038 247.89 167.102 247.89 164.339 248.553C161.89 249.142 159.549 250.112 157.401 251.428C154.979 252.913 152.903 254.989 148.752 259.141L35.2435 372.68C31.094 376.83 29.0192 378.906 27.5355 381.327C26.22 383.474 25.2506 385.815 24.6629 388.264Z" fill="#D9D9D9"/>
</svg>
