<svg width="104" height="104" viewBox="0 0 104 104" fill="none" xmlns="http://www.w3.org/2000/svg">
<g clip-path="url(#clip0_34983_661692)">
<path fill-rule="evenodd" clip-rule="evenodd" d="M104 0H0V104H104V0ZM24.2306 39.8063C24.1113 40.3034 24.1113 40.8316 24.1113 41.888V84.8308C24.1113 86.4438 24.1113 87.2503 24.4252 87.8663C24.7013 88.4082 25.1419 88.8488 25.6838 89.1249C26.2999 89.4388 27.1064 89.4388 28.7193 89.4388H52.9278C53.9846 89.4388 54.513 89.4388 55.0102 89.3194C55.4511 89.2136 55.8726 89.039 56.2591 88.802C56.6951 88.5348 57.0687 88.1611 57.8159 87.4137L78.2475 66.9767C78.9944 66.2296 79.3679 65.8561 79.6349 65.4202C79.8717 65.0337 80.0462 64.6123 80.152 64.1716C80.2713 63.6745 80.2713 63.1463 80.2713 62.0899V19.1471C80.2713 17.5341 80.2713 16.7276 79.9574 16.1116C79.6813 15.5697 79.2407 15.1291 78.6988 14.853C78.0828 14.5391 77.2763 14.5391 75.6633 14.5391H51.4549C50.3981 14.5391 49.8697 14.5391 49.3724 14.6585C48.9315 14.7643 48.5101 14.9389 48.1235 15.1759C47.6875 15.4431 47.3139 15.8168 46.5668 16.5642L46.5667 16.5642L26.1352 37.0012C25.3882 37.7483 25.0148 38.1218 24.7477 38.5577C24.5109 38.9442 24.3364 39.3655 24.2306 39.8063Z" fill="black" fill-opacity="0.16" style="fill:black;fill-opacity:0.16;"/>
</g>
<defs>
<clipPath id="clip0_34983_661692">
<rect width="104" height="104" fill="white" style="fill:white;fill-opacity:1;"/>
</clipPath>
</defs>
</svg>
