<svg width="360" height="800" viewBox="0 0 360 800" fill="none" xmlns="http://www.w3.org/2000/svg">
<path fill-rule="evenodd" clip-rule="evenodd" d="M24.0429 394C24 395.589 24 397.472 24 399.829V638.4C24 647.361 24 651.841 25.7439 655.264C27.2779 658.274 29.7256 660.722 32.7361 662.256C36.1588 664 40.6392 664 49.6 664H184.091C189.962 664 192.898 664 195.661 663.337C198.11 662.749 200.451 661.779 202.599 660.462C205.021 658.978 207.097 656.902 211.247 652.75L211.248 652.749L324.756 539.211C328.906 535.06 330.981 532.985 332.465 530.563C333.78 528.416 334.749 526.075 335.337 523.627C336 520.865 336 517.93 336 512.061V394V273.49V263H360L360 394L360 800H336H0V394H24.0429Z" fill="#D9D9D9"/>
</svg>
