<svg width="360" height="800" viewBox="0 0 360 800" fill="none" xmlns="http://www.w3.org/2000/svg">
<g clip-path="url(#clip0_564_337395)">
<path fill-rule="evenodd" clip-rule="evenodd" d="M24.1317 274C24 277.389 24 281.436 24 286.4V625.6C24 639.041 24 645.762 26.6158 650.896C28.9168 655.412 32.5883 659.083 37.1042 661.384C42.2381 664 48.9587 664 62.4 664H297.6C311.041 664 317.762 664 322.896 661.384C327.412 659.083 331.083 655.412 333.384 650.896C336 645.762 336 639.041 336 625.6V286.4C336 281.436 336 277.389 335.868 274H360V800H0V274H24.1317Z" fill="#C7C7C7"/>
</g>
<defs>
<clipPath id="clip0_564_337395">
<rect width="360" height="799.998" fill="white"/>
</clipPath>
</defs>
</svg>
