<svg width="360" height="800" viewBox="0 0 360 800" fill="none" xmlns="http://www.w3.org/2000/svg">
<g clip-path="url(#clip0_26407_518037)">
<path fill-rule="evenodd" clip-rule="evenodd" d="M360 0H0V800H360V0ZM26.6158 261.104C24 266.238 24 272.959 24 286.4V625.6C24 639.041 24 645.762 26.6158 650.896C28.9168 655.412 32.5883 659.083 37.1042 661.384C42.2381 664 48.9587 664 62.4 664H297.6C311.041 664 317.762 664 322.896 661.384C327.412 659.083 331.083 655.412 333.384 650.896C336 645.762 336 639.041 336 625.6V286.4C336 272.959 336 266.238 333.384 261.104C331.083 256.588 327.412 252.917 322.896 250.616C317.762 248 311.041 248 297.6 248H62.4C48.9587 248 42.2381 248 37.1042 250.616C32.5883 252.917 28.9168 256.588 26.6158 261.104Z" fill="#D9D9D9"/>
</g>
<defs>
<clipPath id="clip0_26407_518037">
<rect width="360" height="799.998" fill="white"/>
</clipPath>
</defs>
</svg>
