<svg width="104" height="104" viewBox="0 0 104 104" fill="none" xmlns="http://www.w3.org/2000/svg">
<g clip-path="url(#clip0_35028_671036)">
<path fill-rule="evenodd" clip-rule="evenodd" d="M104 0H0V104H104V0ZM24.3908 16.9174C23.9199 17.8415 23.9199 19.0512 23.9199 21.4706V82.5266C23.9199 84.946 23.9199 86.1557 24.3908 87.0798C24.8049 87.8927 25.4658 88.5536 26.2787 88.9677C27.2028 89.4386 28.4125 89.4386 30.8319 89.4386H73.1679C75.5873 89.4386 76.7971 89.4386 77.7212 88.9677C78.534 88.5536 79.1949 87.8927 79.6091 87.0798C80.0799 86.1557 80.0799 84.946 80.0799 82.5266V21.4706C80.0799 19.0512 80.0799 17.8415 79.6091 16.9174C79.1949 16.1045 78.534 15.4436 77.7212 15.0294C76.7971 14.5586 75.5874 14.5586 73.1679 14.5586H30.8319C28.4125 14.5586 27.2028 14.5586 26.2787 15.0294C25.4658 15.4436 24.8049 16.1045 24.3908 16.9174Z" fill="white" fill-opacity="0.15" style="fill:white;fill-opacity:0.15;"/>
</g>
<defs>
<clipPath id="clip0_35028_671036">
<rect width="104" height="104" fill="white" style="fill:white;fill-opacity:1;"/>
</clipPath>
</defs>
</svg>
