<svg width="104" height="104" viewBox="0 0 104 104" fill="none" xmlns="http://www.w3.org/2000/svg">
<g clip-path="url(#clip0_1307_400482)">
<path fill-rule="evenodd" clip-rule="evenodd" d="M104 0H0V104H104V0ZM26.1193 37.3367C26 37.8337 26 38.3619 26 39.4181L26 82.4992C26 84.1121 26 84.9186 26.3139 85.5347C26.59 86.0766 27.0306 86.5172 27.5725 86.7933C28.1886 87.1072 28.9951 87.1072 30.608 87.1072H55.7319C56.7862 87.1072 57.3133 87.1072 57.8094 86.9883C58.2494 86.8829 58.67 86.7091 59.056 86.4732C59.4913 86.2071 59.8647 85.835 60.6114 85.0908L76.1843 69.5693C76.9344 68.8216 77.3094 68.4478 77.5777 68.0113C77.8155 67.6242 77.9907 67.2021 78.097 66.7604C78.2169 66.2622 78.2169 65.7327 78.2169 64.6737L78.2169 21.608C78.2169 19.9951 78.2169 19.1886 77.903 18.5725C77.6269 18.0306 77.1863 17.59 76.6444 17.3139C76.0284 17 75.2219 17 73.6089 17H48.4099C47.3529 17 46.8244 17 46.327 17.1194C45.8861 17.2253 45.4646 17.4 45.078 17.637C44.6419 17.9043 44.2683 18.2782 43.5211 19.0258L28.0232 34.5319C27.2765 35.279 26.9032 35.6525 26.6362 36.0884C26.3995 36.4748 26.2251 36.8961 26.1193 37.3367Z" fill="black" fill-opacity="0.16"/>
</g>
<defs>
<clipPath id="clip0_1307_400482">
<rect width="104" height="104" fill="white"/>
</clipPath>
</defs>
</svg>
