<svg width="104" height="104" viewBox="0 0 104 104" fill="none" xmlns="http://www.w3.org/2000/svg">
<g clip-path="url(#clip0_1307_400461)">
<path fill-rule="evenodd" clip-rule="evenodd" d="M104 0H0V104H104V0ZM19.1205 40.3752C19 40.8746 19 41.4056 19 42.4675V76.542C19 78.155 19 78.9615 19.3139 79.5775C19.59 80.1194 20.0306 80.56 20.5725 80.8361C21.1886 81.15 21.995 81.15 23.608 81.15H61.9874C63.044 81.15 63.5723 81.15 64.0695 81.0307C64.5103 80.9249 64.9317 80.7503 65.3182 80.5135C65.7541 80.2463 66.1277 79.8728 66.8747 79.1257L66.8749 79.1256L83.7955 62.205C84.5427 61.4578 84.9162 61.0842 85.1834 60.6483C85.4203 60.2617 85.5948 59.8404 85.7006 59.3996C85.82 58.9024 85.82 58.3741 85.82 57.3174V26.608C85.82 24.995 85.82 24.1886 85.5061 23.5725C85.23 23.0306 84.7894 22.59 84.2475 22.3139C83.6314 22 82.825 22 81.212 22H39.5677C38.5164 22 37.9908 22 37.4958 22.1182C37.057 22.2231 36.6373 22.396 36.252 22.6308C35.8174 22.8956 35.4443 23.2659 34.6982 24.0065L21.0425 37.5621L21.0425 37.5621C20.2888 38.3102 19.912 38.6843 19.6424 39.1216C19.4034 39.5093 19.2273 39.9324 19.1205 40.3752Z" fill="white" fill-opacity="0.15"/>
</g>
<defs>
<clipPath id="clip0_1307_400461">
<rect width="104" height="104" fill="white"/>
</clipPath>
</defs>
</svg>
