<svg width="1120" height="800" viewBox="0 0 1120 800" fill="none" xmlns="http://www.w3.org/2000/svg">
<g clip-path="url(#clip0_1547_401569)">
<path fill-rule="evenodd" clip-rule="evenodd" d="M0 3.12458e-05L5.47905e-05 800L1120 800V0L0 3.12458e-05ZM303.913 394.674C303 397.888 303 401.387 303 408.384V651.401C303 660.362 303 664.842 304.744 668.265C306.278 671.275 308.726 673.723 311.736 675.257C315.159 677.001 319.639 677.001 328.6 677.001H642.204C647.204 677.001 649.704 677.001 652.095 676.509C654.217 676.073 656.269 675.352 658.197 674.366C660.37 673.254 662.32 671.69 666.221 668.563L666.222 668.563L802.618 559.225L802.618 559.225C807.9 554.991 810.541 552.874 812.441 550.248C814.125 547.922 815.378 545.312 816.14 542.543C817 539.418 817 536.033 817 529.264V311.6C817 302.64 817 298.159 815.256 294.737C813.722 291.726 811.274 289.278 808.264 287.744C804.841 286 800.361 286 791.4 286H452.212C447.424 286 445.03 286 442.732 286.453C440.693 286.855 438.714 287.52 436.847 288.431C434.742 289.458 432.834 290.905 429.018 293.797L318.206 377.781C312.629 382.007 309.841 384.121 307.83 386.79C306.049 389.154 304.721 391.827 303.913 394.674Z" fill="#C7C7C7"/>
</g>
<defs>
<clipPath id="clip0_1547_401569">
<rect width="1120" height="800" fill="white"/>
</clipPath>
</defs>
</svg>
