<svg width="1120" height="800" viewBox="0 0 1120 800" fill="none" xmlns="http://www.w3.org/2000/svg">
<g clip-path="url(#clip0_1547_401573)">
<path fill-rule="evenodd" clip-rule="evenodd" d="M303.074 401C303 402.979 303 405.354 303 408.384V651.401C303 660.362 303 664.842 304.744 668.265C306.278 671.275 308.726 673.723 311.736 675.257C315.159 677.001 319.639 677.001 328.6 677.001H642.204C647.204 677.001 649.704 677.001 652.095 676.509C654.217 676.073 656.269 675.352 658.197 674.366C660.37 673.254 662.321 671.69 666.222 668.562L802.618 559.225C807.9 554.991 810.541 552.874 812.441 550.248C814.125 547.922 815.378 545.312 816.14 542.543C817 539.418 817 536.033 817 529.264V311.6C817 307.614 817 304.514 816.846 302L1120 302V800L560 800H2.74637e-05L0 401L303.074 401Z" fill="#C7C7C7"/>
</g>
<defs>
<clipPath id="clip0_1547_401573">
<rect width="1120" height="800" fill="white"/>
</clipPath>
</defs>
</svg>
