<svg width="800" height="1120" viewBox="0 0 800 1120" fill="none" xmlns="http://www.w3.org/2000/svg">
<g clip-path="url(#clip0_1547_401580)">
<path fill-rule="evenodd" clip-rule="evenodd" d="M800 0H4.54608e-05L0 1120H800L800 0ZM119.388 479.941C118.725 482.702 118.725 485.636 118.725 491.504L118.725 994.401C118.725 1003.36 118.725 1007.84 120.469 1011.26C122.003 1014.27 124.45 1016.72 127.461 1018.26C130.883 1020 135.364 1020 144.325 1020H453.807C459.663 1020 462.592 1020 465.348 1019.34C467.792 1018.75 470.129 1017.79 472.274 1016.48C474.692 1015 476.766 1012.93 480.915 1008.8L669.768 820.568C673.935 816.415 676.019 814.338 677.509 811.913C678.83 809.762 679.804 807.417 680.394 804.963C681.06 802.196 681.06 799.254 681.06 793.371L681.061 290.6C681.061 281.639 681.061 277.159 679.317 273.736C677.783 270.726 675.335 268.278 672.325 266.744C668.902 265 664.422 265 655.461 265H345.129C339.257 265 336.321 265 333.558 265.664C331.108 266.252 328.767 267.222 326.619 268.539C324.196 270.024 322.121 272.101 317.969 276.254L129.965 464.359C125.817 468.509 123.743 470.584 122.259 473.006C120.944 475.153 119.975 477.493 119.388 479.941Z" fill="#C7C7C7"/>
</g>
<defs>
<clipPath id="clip0_1547_401580">
<rect width="800" height="1120" fill="white"/>
</clipPath>
</defs>
</svg>
