<svg width="800" height="1120" viewBox="0 0 800 1120" fill="none" xmlns="http://www.w3.org/2000/svg">
<g clip-path="url(#clip0_1547_401584)">
<path fill-rule="evenodd" clip-rule="evenodd" d="M118.837 484C118.725 485.916 118.725 488.263 118.725 491.504L118.725 994.401C118.725 1003.36 118.725 1007.84 120.469 1011.26C122.003 1014.27 124.45 1016.72 127.461 1018.26C130.884 1020 135.364 1020 144.325 1020H453.807C459.664 1020 462.592 1020 465.349 1019.34C467.793 1018.75 470.129 1017.79 472.274 1016.48C474.692 1015 476.767 1012.93 480.915 1008.8L669.768 820.568C673.935 816.415 676.019 814.338 677.509 811.913C678.83 809.762 679.804 807.417 680.394 804.963C681.06 802.196 681.06 799.254 681.06 793.371L681.061 290.6C681.061 286.614 681.061 283.514 680.908 281H800V1120H400H0L2.58153e-05 484H118.837Z" fill="#C7C7C7"/>
</g>
<defs>
<clipPath id="clip0_1547_401584">
<rect width="800" height="1120" fill="white"/>
</clipPath>
</defs>
</svg>
