<svg width="360" height="800" viewBox="0 0 360 800" fill="none" xmlns="http://www.w3.org/2000/svg">
<path fill-rule="evenodd" clip-rule="evenodd" d="M22.9362 380H0V800H173H174H360V305H337.055C337.553 326.901 326.178 350.537 306.024 372.218C319.198 380.243 328.839 391.014 333.676 404.304C343.314 430.786 331.913 461.86 306.024 489.71C319.198 497.735 328.839 508.505 333.676 521.796C351.529 570.846 297.198 635.651 212.325 666.542C127.453 697.433 44.1772 682.712 26.3245 633.663C16.686 607.181 28.0878 576.107 53.9768 548.257C40.8026 540.232 31.1619 529.461 26.3245 516.171C16.686 489.689 28.0878 458.615 53.9768 430.765C40.8026 422.74 31.1619 411.97 26.3245 398.679C24.1335 392.659 23.0298 386.402 22.9362 380Z" fill="#D9D9D9"/>
</svg>
