<svg width="360" height="800" viewBox="0 0 360 800" fill="none" xmlns="http://www.w3.org/2000/svg">
<path fill-rule="evenodd" clip-rule="evenodd" d="M360 0H0V800H360V0ZM306.024 372.218C331.913 344.368 343.314 313.294 333.676 286.812C315.823 237.763 232.548 223.042 147.675 253.933C62.8023 284.824 8.47186 349.629 26.3245 398.679C31.1619 411.97 40.8026 422.74 53.9768 430.765C28.0878 458.615 16.686 489.689 26.3245 516.171C31.1619 529.461 40.8026 540.232 53.9768 548.257C28.0878 576.107 16.686 607.181 26.3245 633.663C44.1772 682.712 127.453 697.433 212.325 666.542C297.198 635.651 351.529 570.846 333.676 521.796C328.839 508.505 319.198 497.735 306.024 489.71C331.913 461.86 343.314 430.786 333.676 404.304C328.839 391.014 319.198 380.243 306.024 372.218Z" fill="#D9D9D9"/>
</svg>
