<svg width="104" height="104" viewBox="0 0 104 104" fill="none" xmlns="http://www.w3.org/2000/svg">
<g clip-path="url(#clip0_34983_661816)">
<path fill-rule="evenodd" clip-rule="evenodd" d="M104 0H0V104H104V0ZM74.4745 36.9226C79.1345 31.9096 81.1868 26.3163 79.4519 21.5496C76.2384 12.7206 61.2488 10.0709 45.9717 15.6313C30.6947 21.1917 20.9152 32.8566 24.1287 41.6856C24.9994 44.0779 26.7347 46.0165 29.106 47.461C24.446 52.474 22.3937 58.0673 24.1287 62.834C24.9994 65.2263 26.7347 67.1649 29.106 68.6095C24.446 73.6225 22.3937 79.2158 24.1287 83.9825C27.3421 92.8114 42.3317 95.4611 57.6088 89.9007C72.8859 84.3403 82.6654 72.6754 79.4519 63.8465C78.5812 61.4542 76.8459 59.5156 74.4745 58.071C79.1345 53.058 81.1868 47.4647 79.4519 42.698C78.5812 40.3057 76.8459 38.3671 74.4745 36.9226Z" fill="black" fill-opacity="0.16" style="fill:black;fill-opacity:0.16;"/>
</g>
<defs>
<clipPath id="clip0_34983_661816">
<rect width="104" height="104" fill="white" style="fill:white;fill-opacity:1;"/>
</clipPath>
</defs>
</svg>
