<svg width="1120" height="800" viewBox="0 0 1120 800" fill="none" xmlns="http://www.w3.org/2000/svg">
<g clip-path="url(#clip0_1547_401698)">
<path fill-rule="evenodd" clip-rule="evenodd" d="M0 3.12458e-05L5.47905e-05 800L1120 800V0L0 3.12458e-05ZM498.5 286C390.528 286 303 373.528 303 481.5C303 589.472 390.528 677 498.5 677H792.154C800.404 677 804.529 677 807.731 675.515C811.165 673.923 813.923 671.165 815.515 667.731C817 664.529 817 660.404 817 652.154V310.846C817 302.596 817 298.471 815.515 295.269C813.923 291.835 811.165 289.077 807.731 287.485C804.529 286 800.404 286 792.154 286H498.5Z" fill="#C7C7C7"/>
</g>
<defs>
<clipPath id="clip0_1547_401698">
<rect width="1120" height="800" fill="white"/>
</clipPath>
</defs>
</svg>
