<svg width="800" height="1120" viewBox="0 0 800 1120" fill="none" xmlns="http://www.w3.org/2000/svg">
<g clip-path="url(#clip0_1547_401549)">
<path fill-rule="evenodd" clip-rule="evenodd" d="M800 0H4.54608e-05L0 1120H800L800 0ZM496.5 265C288.013 265 119 434.013 119 642.5C119 850.987 288.013 1020 496.5 1020H664.531C664.967 1020 665.184 1020 665.368 1020C673.916 1019.8 680.799 1012.92 680.996 1004.37C681 1004.18 681 1003.97 681 1003.53V281.469C681 281.034 681 280.816 680.996 280.632C680.799 272.084 673.916 265.201 665.368 265.004C665.184 265 664.967 265 664.531 265H496.5Z" fill="#C7C7C7"/>
</g>
<defs>
<clipPath id="clip0_1547_401549">
<rect width="800" height="1120" fill="white"/>
</clipPath>
</defs>
</svg>
