<svg width="104" height="104" viewBox="0 0 104 104" fill="none" xmlns="http://www.w3.org/2000/svg">
<g clip-path="url(#clip0_1307_400435)">
<path fill-rule="evenodd" clip-rule="evenodd" d="M104 0H0V104H104V0ZM48.575 22C32.2412 22 19 35.2412 19 51.575C19 67.9088 32.2412 81.15 48.575 81.15H81.4294C82.8376 81.15 83.5418 81.15 84.0932 80.909C84.7579 80.6186 85.2886 80.0879 85.579 79.4232C85.82 78.8718 85.82 78.1676 85.82 76.7594V26.3906C85.82 24.9824 85.82 24.2782 85.579 23.7268C85.2886 23.0621 84.7579 22.5314 84.0932 22.2409C83.5418 22 82.8376 22 81.4294 22H48.575Z" fill="black" fill-opacity="0.16"/>
</g>
<defs>
<clipPath id="clip0_1307_400435">
<rect width="104" height="104" fill="white"/>
</clipPath>
</defs>
</svg>
