<svg width="698" height="751" viewBox="0 0 698 751" fill="none" xmlns="http://www.w3.org/2000/svg">
<g clip-path="url(#clip0_1547_401621)">
<path fill-rule="evenodd" clip-rule="evenodd" d="M698 0H0V751H698V0ZM547.844 364.539C583.318 339.18 599.671 311.2 588.551 286.519C566.153 236.81 440.794 219.303 308.554 247.417C176.313 275.53 87.2682 338.617 109.666 388.326C115.915 402.196 130.179 413.558 150.372 422.122C114.898 447.481 98.5449 475.461 109.666 500.143C115.915 514.013 130.181 525.376 150.375 533.94C114.899 559.3 98.5446 587.281 109.666 611.963C132.063 661.672 257.422 679.178 389.663 651.065C521.903 622.952 610.948 559.864 588.551 510.155C582.301 496.285 568.035 484.922 547.841 476.358C583.317 450.998 599.672 423.017 588.551 398.335C582.301 384.466 568.037 373.103 547.844 364.539Z" fill="#C7C7C7"/>
</g>
<defs>
<clipPath id="clip0_1547_401621">
<rect width="698" height="751" fill="white"/>
</clipPath>
</defs>
</svg>
