<svg width="698" height="751" viewBox="0 0 698 751" fill="none" xmlns="http://www.w3.org/2000/svg">
<path fill-rule="evenodd" clip-rule="evenodd" d="M106.22 373H0V751H349H698V301H591.975C592.717 321.806 576.534 344.03 547.844 364.539C568.037 373.103 582.301 384.466 588.55 398.335C599.672 423.017 583.317 450.998 547.841 476.358C568.035 484.922 582.301 496.285 588.55 510.155C610.948 559.864 521.903 622.952 389.662 651.065C257.422 679.178 132.063 661.672 109.666 611.963C98.5443 587.281 114.899 559.3 150.375 533.94C130.181 525.376 115.915 514.013 109.666 500.143C98.5447 475.461 114.898 447.481 150.372 422.122C130.179 413.558 115.915 402.196 109.666 388.326C107.417 383.336 106.292 378.211 106.22 373Z" fill="#C7C7C7"/>
</svg>
