<svg width="104" height="104" viewBox="0 0 104 104" fill="none" xmlns="http://www.w3.org/2000/svg">
<g clip-path="url(#clip0_1307_400397)">
<path fill-rule="evenodd" clip-rule="evenodd" d="M104 0H0V104H104V0ZM81.8017 39.4484C87.087 35.6699 89.5236 31.5011 87.8666 27.8236C84.5295 20.4171 65.8513 17.8087 46.1479 21.9975C26.4445 26.1863 13.177 35.5862 16.5142 42.9927C17.4453 45.0591 19.5706 46.7521 22.5791 48.0281C17.2938 51.8065 14.8572 55.9754 16.5142 59.6528C17.4456 61.7201 19.5722 63.4135 22.5826 64.6897C17.2948 68.4688 14.8569 72.6386 16.5142 76.3169C19.8514 83.7234 38.5295 86.3318 58.2329 82.143C77.9364 77.9542 91.2038 68.5543 87.8666 61.1478C86.9352 59.0806 84.8086 57.3872 81.7982 56.111C87.086 52.3319 89.524 48.162 87.8666 44.4838C86.9355 42.4173 84.8102 40.7244 81.8017 39.4484Z" fill="white" fill-opacity="0.15"/>
</g>
<defs>
<clipPath id="clip0_1307_400397">
<rect width="104" height="104" fill="white"/>
</clipPath>
</defs>
</svg>
