<svg width="104" height="104" viewBox="0 0 104 104" fill="none" xmlns="http://www.w3.org/2000/svg">
<g clip-path="url(#clip0_1307_400369)">
<path fill-rule="evenodd" clip-rule="evenodd" d="M104 0H0V104H104V0ZM16.1194 42.7847C16 43.2819 16 43.8102 16 44.8669V77.42C16 79.033 16 79.8395 16.3139 80.4555C16.59 80.9974 17.0306 81.438 17.5725 81.7141C18.1886 82.028 18.995 82.028 20.608 82.028L65.5457 82.0281C66.6024 82.0281 67.1307 82.0281 67.6279 81.9087C68.0686 81.8029 68.49 81.6283 68.8766 81.3915C69.3125 81.1243 69.6861 80.7508 70.4333 80.0036L86.3881 64.0487C87.1353 63.3016 87.5089 62.928 87.776 62.4921C88.0129 62.1055 88.1874 61.6841 88.2932 61.2433C88.4126 60.7462 88.4126 60.2178 88.4126 59.1612V26.608C88.4126 24.9951 88.4126 24.1886 88.0987 23.5726C87.8226 23.0306 87.382 22.5901 86.8401 22.3139C86.224 22 85.4176 22 83.8046 22L38.8669 22C37.8102 22 37.2819 22 36.7847 22.1194C36.3439 22.2252 35.9225 22.3997 35.536 22.6366C35.1001 22.9038 34.7265 23.2773 33.9793 24.0245L18.0245 39.9793C17.2773 40.7265 16.9038 41.1001 16.6366 41.536C16.3997 41.9225 16.2252 42.3439 16.1194 42.7847Z" fill="black" fill-opacity="0.16"/>
</g>
<defs>
<clipPath id="clip0_1307_400369">
<rect width="104" height="104" fill="white"/>
</clipPath>
</defs>
</svg>
