<svg width="698" height="751" viewBox="0 0 698 751" fill="none" xmlns="http://www.w3.org/2000/svg">
<g clip-path="url(#clip0_1547_401559)">
<path fill-rule="evenodd" clip-rule="evenodd" d="M698 0H0V751H698V0ZM106.663 386.595C106 389.357 106 392.292 106 398.162V612.481C106 625.922 106 632.642 108.616 637.776C110.917 642.292 114.588 645.964 119.104 648.265C124.238 650.881 130.959 650.881 144.4 650.881L441.838 650.881C447.708 650.881 450.643 650.881 453.405 650.218C455.854 649.63 458.195 648.66 460.342 647.344C462.764 645.86 464.84 643.785 468.991 639.634L580.753 527.872C584.904 523.721 586.979 521.645 588.463 519.223C589.779 517.076 590.749 514.735 591.337 512.286C592 509.524 592 506.589 592 500.719V286.4C592 272.959 592 266.238 589.384 261.105C587.083 256.589 583.412 252.917 578.896 250.616C573.762 248 567.041 248 553.6 248L256.162 248H256.162C250.292 248 247.357 248 244.595 248.663C242.146 249.251 239.805 250.221 237.658 251.537C235.236 253.021 233.16 255.096 229.009 259.247L117.247 371.009L117.247 371.01C113.096 375.16 111.021 377.236 109.537 379.658C108.221 381.805 107.251 384.146 106.663 386.595Z" fill="#C7C7C7"/>
</g>
<defs>
<clipPath id="clip0_1547_401559">
<rect width="698" height="751" fill="white"/>
</clipPath>
</defs>
</svg>
