<svg width="104" height="104" viewBox="0 0 104 104" fill="none" xmlns="http://www.w3.org/2000/svg">
<g clip-path="url(#clip0_1307_400374)">
<path fill-rule="evenodd" clip-rule="evenodd" d="M104 0H0V104H104V0ZM46.5444 21C29.6752 21 16 34.6752 16 51.5444C16 68.4136 29.6752 82.0888 46.5444 82.0888H84.2261C85.4428 82.0888 86.0512 82.0888 86.5372 81.9079C87.3214 81.6161 87.9399 80.9976 88.2317 80.2134C88.4126 79.7274 88.4126 79.119 88.4126 77.9023V25.1865C88.4126 23.9698 88.4126 23.3614 88.2317 22.8754C87.9399 22.0912 87.3214 21.4727 86.5372 21.1809C86.0512 21 85.4428 21 84.2261 21H46.5444Z" fill="black" fill-opacity="0.16"/>
</g>
<defs>
<clipPath id="clip0_1307_400374">
<rect width="104" height="104" fill="white"/>
</clipPath>
</defs>
</svg>
