<svg width="698" height="751" viewBox="0 0 698 751" fill="none" xmlns="http://www.w3.org/2000/svg">
<g clip-path="url(#clip0_1547_401539)">
<path fill-rule="evenodd" clip-rule="evenodd" d="M698 0H0V751H698V0ZM311 241C197.782 241 106 332.782 106 446C106 559.218 197.782 651 311 651H568.508C575.486 651 578.976 651 581.753 649.93C585.971 648.305 589.305 644.971 590.93 640.753C592 637.976 592 634.486 592 627.508V264.492C592 257.514 592 254.024 590.93 251.247C589.305 247.029 585.971 243.695 581.753 242.07C578.976 241 575.486 241 568.508 241H311Z" fill="#C7C7C7"/>
</g>
<defs>
<clipPath id="clip0_1547_401539">
<rect width="698" height="751" fill="white"/>
</clipPath>
</defs>
</svg>
